Coordinates
version=1
nRows=14
nColumns=24
inDegrees=yes

Units are S.I. units (second, meters, Newtons, ...)
Angles are in degrees.

endheader
time	pelvis_tilt	pelvis_list	pelvis_rotation	pelvis_tx	pelvis_ty	pelvis_tz	hip_flexion_r	hip_adduction_r	hip_rotation_r	knee_angle_r	ankle_angle_r	subtalar_angle_r	mtp_angle_r	hip_flexion_l	hip_adduction_l	hip_rotation_l	knee_angle_l	ankle_angle_l	subtalar_angle_l	mtp_angle_l	lumbar_extension	lumbar_bending	lumbar_rotation
      0.93700000	      5.43834286	     -3.22891766	     -2.16256435	     -0.37265703	      1.08231079	      0.30611697	     -0.93480092	      8.55041018	     -4.82085584	     -9.71522247	      1.54555409	     -4.37145099	      2.48798463	      7.72870764	     -4.93045028	     -2.78001621	    -59.42794760	      3.37405193	     -4.62749542	      4.81911623	     -1.60987665	      8.11932667	      1.00339144
      0.94116667	      5.46668672	     -3.18980282	     -2.31810769	     -0.36777864	      1.08279540	      0.30645735	     -1.35236953	      8.51275011	     -4.65469324	     -9.54376770	      1.64185659	     -4.45341394	      2.48639329	      8.17470959	     -4.80867724	     -2.64179418	    -58.95909894	      3.85302592	     -5.29000632	      4.68362998	     -1.71646791	      8.10382997	      1.15307630
      0.94533333	      5.49569472	     -3.15959133	     -2.43355720	     -0.36289409	      1.08325109	      0.30685340	     -1.79179288	      8.49868831	     -4.43529044	     -9.31621635	      1.71746676	     -4.52523795	      2.48191471	      8.61783383	     -4.70674122	     -2.47083073	    -58.44468374	      4.17901817	     -5.93493076	      4.52600289	     -1.77322192	      8.05156314	      1.33832816
      0.94950000	      5.51499789	     -3.15022558	     -2.48314190	     -0.35801896	      1.08365180	      0.30724996	     -2.23395624	      8.52069502	     -4.21408504	     -9.05313584	      1.77368728	     -4.53697448	      2.47868828	      9.07907847	     -4.63023160	     -2.22787240	    -57.90666842	      4.42659190	     -6.36101977	      4.43773300	     -1.80017861	      7.98239970	      1.45499636
      0.95366667	      5.52144538	     -3.09879313	     -2.66713848	     -0.35319792	      1.08404580	      0.30760923	     -2.62369830	      8.46625462	     -4.02394719	     -8.88004220	      1.85275044	     -4.69681145	      2.46611598	      9.50740876	     -4.49947452	     -2.12835212	    -57.28823597	      4.71950942	     -7.15610800	      4.24889707	     -1.89394820	      7.95818643	      1.66127150
      0.95783333	      5.54659036	     -3.06756324	     -2.76998515	     -0.34834028	      1.08442930	      0.30797260	     -3.06510766	      8.44991223	     -3.80186112	     -8.63445143	      1.90539323	     -4.81456178	      2.45024280	      9.91852907	     -4.39427425	     -1.94793307	    -56.63600147	      4.90063432	     -7.79499857	      4.04620874	     -1.93890312	      7.90696578	      1.87138389
      0.96200000	      5.54942885	     -3.05726998	     -2.81079560	     -0.34354065	      1.08471791	      0.30832495	     -3.48698309	      8.47089667	     -3.58777366	     -8.36111748	      1.95193123	     -4.84049783	      2.44186843	     10.36608729	     -4.31440947	     -1.69819877	    -55.97288868	      5.07092861	     -8.15824212	      3.94567154	     -1.95693403	      7.85440394	      1.97906364
      0.96616667	      5.54526361	     -3.02158661	     -2.90922494	     -0.33870237	      1.08500947	      0.30863861	     -3.89352979	      8.44699444	     -3.39052014	     -8.11397299	      2.01719997	     -4.95423734	      2.42845548	     10.78433564	     -4.20129331	     -1.51264689	    -55.24074751	      5.29688754	     -8.71950159	      3.81732746	     -1.96380780	      7.79046187	      2.11335392
      0.97033333	      5.53363350	     -2.99694851	     -3.00022364	     -0.33388932	      1.08524742	      0.30895743	     -4.29460754	      8.43733257	     -3.18064495	     -7.86440322	      2.06824908	     -5.07962150	      2.41177074	     11.20347312	     -4.10510617	     -1.32551129	    -54.47808801	      5.43041138	     -9.28326774	      3.67331512	     -1.98398213	      7.74577166	      2.25649389
      0.97450000	      5.51645786	     -2.96168128	     -3.17502400	     -0.32917775	      1.08547124	      0.30929118	     -4.66050374	      8.39946585	     -2.97742149	     -7.66777623	      2.08488445	     -5.36039838	      2.37056817	     11.60141387	     -4.00289550	     -1.23186903	    -53.64449284	      5.38681471	    -10.09739174	      3.35938035	     -2.10431820	      7.73603085	      2.50346678
      0.97866667	      5.49334883	     -2.95253146	     -3.19378911	     -0.32438390	      1.08561493	      0.30955311	     -5.05927827	      8.41647628	     -2.81340022	     -7.37847901	      2.11695287	     -5.37419545	      2.35815265	     12.02358346	     -3.91995289	     -0.96571523	    -52.81640102	      5.48444136	    -10.31750018	      3.26187580	     -2.06960939	      7.70965545	      2.58460121
      0.98283333	      5.46523089	     -2.93644215	     -3.26055003	     -0.31954491	      1.08574878	      0.30980115	     -5.45110522	      8.41326868	     -2.65140344	     -7.10742644	      2.16803570	     -5.48904347	      2.33742241	     12.41664776	     -3.83208101	     -0.76044380	    -51.93094964	      5.60639777	    -10.77885888	      3.11704154	     -2.02784261	      7.66268732	      2.69845372
      0.98700000	      5.42815785	     -2.92636398	     -3.32909511	     -0.31476697	      1.08582831	      0.31003725	     -5.82774189	      8.41607073	     -2.47701396	     -6.83888381	      2.20167968	     -5.62360935	      2.31246290	     12.81196560	     -3.75171003	     -0.56068758	    -51.00916781	      5.62937394	    -11.25405089	      2.95236789	     -2.01869396	      7.64323915	      2.81321241
      0.99116667	      5.39296113	     -2.92058071	     -3.39589041	     -0.31000619	      1.08588801	      0.31025018	     -6.20733978	      8.42027229	     -2.31957463	     -6.56488175	      2.21776139	     -5.76822797	      2.28400173	     13.19078377	     -3.67590649	     -0.35833195	    -50.04448428	      5.60422009	    -11.71244713	      2.77380676	     -2.00583436	      7.63428852	      2.92850886
